<svg width="25" height="25" viewBox="0 0 25 25" fill="none" xmlns="http://www.w3.org/2000/svg">
<path d="M11.7421 2.69147L11.7422 4.69131C7.82076 5.1803 4.78625 8.52553 4.78625 12.5795C4.78625 16.97 8.34545 20.5292 12.7359 20.5292C14.573 20.5292 16.2645 19.9061 17.6106 18.8597L19.025 20.2736C17.312 21.6756 15.1222 22.5166 12.7359 22.5166C7.24782 22.5166 2.79883 18.0676 2.79883 12.5795C2.79883 7.4268 6.72063 3.19008 11.7421 2.69147ZM22.624 13.5733C22.4255 15.5717 21.6351 17.3958 20.4305 18.868L19.0161 17.4542C19.8709 16.3546 20.4432 15.0246 20.6241 13.5731L22.624 13.5733ZM13.7307 2.69157C18.4249 3.15815 22.1578 6.8914 22.624 11.5857L20.6241 11.5858C20.1758 7.99018 17.3261 5.14023 13.7306 4.69143L13.7307 2.69157Z" fill="#182B49"/>
</svg>
