<svg width="24" height="24" viewBox="0 0 24 24" fill="none" xmlns="http://www.w3.org/2000/svg">
<path fill-rule="evenodd" clip-rule="evenodd" d="M6.14406 3.63479C6.47806 4.07463 6.39226 4.70196 5.95242 5.03596C4.89309 5.84038 4.00489 6.84806 3.33983 7.99999C3.06368 8.47828 2.45209 8.64216 1.9738 8.36602C1.49551 8.08987 1.33163 7.47828 1.60777 6.99999C2.40586 5.61767 3.4717 4.40846 4.74289 3.44315C5.18273 3.10915 5.81005 3.19495 6.14406 3.63479ZM17.8561 3.63479C18.1901 3.19495 18.8174 3.10915 19.2573 3.44315C20.5285 4.40846 21.5943 5.61767 22.3924 6.99999C22.6685 7.47828 22.5047 8.08987 22.0264 8.36602C21.5481 8.64216 20.9365 8.47828 20.6603 7.99999C19.9953 6.84806 19.1071 5.84038 18.0477 5.03596C17.6079 4.70196 17.5221 4.07463 17.8561 3.63479ZM12.0001 6.00002C8.13408 6.00002 5.00008 9.13403 5.00008 13C5.00008 16.866 8.13408 20 12.0001 20C15.8661 20 19.0001 16.866 19.0001 13C19.0001 9.13403 15.8661 6.00002 12.0001 6.00002ZM3.00008 13C3.00008 8.02946 7.02952 4.00002 12.0001 4.00002C16.9706 4.00002 21.0001 8.02946 21.0001 13C21.0001 17.9706 16.9706 22 12.0001 22C7.02952 22 3.00008 17.9706 3.00008 13ZM12.0001 8.00002C12.5524 8.00002 13.0001 8.44774 13.0001 9.00002V12H16.0001C16.5524 12 17.0001 12.4477 17.0001 13C17.0001 13.5523 16.5524 14 16.0001 14H12.0001C11.4478 14 11.0001 13.5523 11.0001 13V9.00002C11.0001 8.44774 11.4478 8.00002 12.0001 8.00002Z" fill="black"/>
</svg>
