<svg width="25" height="25" viewBox="0 0 25 25" fill="none" xmlns="http://www.w3.org/2000/svg">
<path d="M20.1886 6.43553L19.5728 16.3976C19.4154 18.9428 19.3368 20.2154 18.6989 21.1304C18.3834 21.5828 17.9773 21.9646 17.5063 22.2514C16.5537 22.8318 15.2787 22.8318 12.7285 22.8318C10.1751 22.8318 8.89838 22.8318 7.94516 22.2504C7.47389 21.963 7.06767 21.5805 6.75234 21.1274C6.11458 20.211 6.03763 18.9365 5.88377 16.3878L5.28296 6.43553" stroke="#D80808" stroke-width="1.36231" stroke-linecap="round"/>
<path d="M3.79248 6.43565H21.6793M16.7661 6.43565L16.0878 5.03623C15.6371 4.10665 15.4118 3.64185 15.0231 3.35197C14.937 3.28767 14.8456 3.23047 14.7501 3.18094C14.3198 2.95766 13.8032 2.95766 12.7702 2.95766C11.7112 2.95766 11.1817 2.95766 10.7442 3.1903C10.6472 3.24187 10.5547 3.30138 10.4675 3.36823C10.0744 3.66985 9.85475 4.15165 9.41551 5.11526L8.81363 6.43565" stroke="#D80808" stroke-width="1.36231" stroke-linecap="round"/>
<path d="M10.2515 17.3664V11.4041" stroke="#D80808" stroke-width="1.36231" stroke-linecap="round"/>
<path d="M15.22 17.3664V11.4041" stroke="#D80808" stroke-width="1.36231" stroke-linecap="round"/>
</svg>
