<svg width="67" height="67" viewBox="0 0 67 67" fill="none" xmlns="http://www.w3.org/2000/svg">
<path d="M50.25 8.375V22.3333M16.75 8.375V22.3333" stroke="#141B34" stroke-width="3" stroke-linecap="round" stroke-linejoin="round"/>
<path d="M57.2291 11.1667V15.3542M57.2291 15.3542V19.5417M57.2291 15.3542H61.4166M9.77075 11.1667V15.3542M9.77075 15.3542V19.5417M9.77075 15.3542H5.58325" stroke="#FFAF7E" stroke-width="3" stroke-linecap="round" stroke-linejoin="round"/>
<path d="M50.25 15.3542H16.75" stroke="#141B34" stroke-width="3" stroke-linecap="round" stroke-linejoin="round"/>
<path d="M20.3136 53.0417H46.6863C50.141 53.0417 51.8682 53.0417 52.5826 52.1969C54.2037 50.2799 51.098 47.7462 49.9649 46.469C48.688 45.0301 47.7539 44.6667 45.8667 44.6667H21.1332C19.2459 44.6667 18.3119 45.0301 17.0351 46.469C15.9017 47.7462 12.7962 50.2799 14.4173 52.1969C15.1315 53.0417 16.8588 53.0417 20.3136 53.0417Z" stroke="#141B34" stroke-width="3" stroke-linecap="round" stroke-linejoin="round"/>
<path d="M25.125 22.3333V44.6667M41.875 22.3333V44.6667" stroke="#141B34" stroke-width="3" stroke-linecap="round" stroke-linejoin="round"/>
<path d="M44.6666 53.0417V58.625M22.3333 53.0417V58.625" stroke="#141B34" stroke-width="3" stroke-linecap="round" stroke-linejoin="round"/>
</svg>
