<svg width="75" height="65" viewBox="0 0 75 65" fill="none" xmlns="http://www.w3.org/2000/svg">
<path d="M66.9844 31.1458H65.7969V21.9917C65.7919 20.8293 65.257 19.7158 64.3086 18.894C63.3603 18.0721 62.0755 17.6084 60.7344 17.6042H58.7656V16.575C58.7656 15.4078 58.2306 14.2883 57.2783 13.463C56.3259 12.6376 55.0343 12.174 53.6875 12.174C52.3407 12.174 51.0491 12.6376 50.0967 13.463C49.1444 14.2883 48.6094 15.4078 48.6094 16.575V31.1458H26.3906V16.575C26.3906 15.4078 25.8556 14.2883 24.9033 13.463C23.9509 12.6376 22.6593 12.174 21.3125 12.174C19.9657 12.174 18.6741 12.6376 17.7217 13.463C16.7694 14.2883 16.2344 15.4078 16.2344 16.575V17.6042H14.2656C12.923 17.6042 11.6353 18.0664 10.6859 18.8892C9.73649 19.712 9.20312 20.828 9.20312 21.9917V31.1458H8.01562C7.60122 31.1458 7.2038 31.2885 6.91077 31.5425C6.61774 31.7964 6.45312 32.1408 6.45312 32.5C6.45312 32.8591 6.61774 33.2036 6.91077 33.4575C7.2038 33.7115 7.60122 33.8542 8.01562 33.8542H9.20312V42.9812C9.19983 43.5595 9.3283 44.1326 9.58117 44.6677C9.83403 45.2029 10.2063 45.6895 10.6767 46.0996C11.147 46.5098 11.7061 46.8354 12.322 47.0578C12.9379 47.2803 13.5984 47.3951 14.2656 47.3958H16.25V48.3979C16.25 49.5651 16.785 50.6846 17.7373 51.5099C18.6897 52.3353 19.9813 52.799 21.3281 52.799C22.6749 52.799 23.9666 52.3353 24.9189 51.5099C25.8712 50.6846 26.4062 49.5651 26.4062 48.3979V33.8542H48.625V48.3979C48.625 49.5651 49.16 50.6846 50.1123 51.5099C51.0647 52.3353 52.3563 52.799 53.7031 52.799C55.0499 52.799 56.3416 52.3353 57.2939 51.5099C58.2462 50.6846 58.7812 49.5651 58.7812 48.3979V47.3958H60.75C62.096 47.3901 63.3846 46.9223 64.3335 46.0949C65.2823 45.2674 65.8142 44.1478 65.8125 42.9812V33.8542H67C67.4144 33.8542 67.8118 33.7115 68.1049 33.4575C68.3979 33.2036 68.5625 32.8591 68.5625 32.5C68.5625 32.1408 68.3979 31.7964 68.1049 31.5425C67.8118 31.2885 67.4144 31.1458 67 31.1458H66.9844ZM16.25 44.6875H14.2813C14.0248 44.6857 13.7712 44.6402 13.535 44.5535C13.2988 44.4668 13.0847 44.3406 12.9047 44.1822C12.7248 44.0237 12.5827 43.8361 12.4864 43.6301C12.3902 43.424 12.3417 43.2035 12.3438 42.9812V21.9917C12.3462 21.547 12.5511 21.1211 12.914 20.8067C13.2768 20.4922 13.7682 20.3146 14.2813 20.3125H16.25V44.6875ZM23.2812 48.3979C23.278 48.8496 23.0695 49.2819 22.701 49.6013C22.3325 49.9206 21.8336 50.1013 21.3125 50.1042C21.056 50.1024 20.8024 50.0568 20.5662 49.9701C20.3301 49.8834 20.1159 49.7573 19.936 49.5988C19.7561 49.4404 19.6139 49.2528 19.5177 49.0467C19.4214 48.8407 19.3729 48.6202 19.375 48.3979V16.575C19.3775 16.1303 19.5824 15.7044 19.9452 15.39C20.308 15.0756 20.7994 14.898 21.3125 14.8958C21.8288 14.8972 22.3239 15.0737 22.6919 15.3875C23.0599 15.7014 23.2714 16.1276 23.2812 16.575V48.3979ZM55.6562 48.3979C55.6562 48.8468 55.4505 49.2774 55.0842 49.5948C54.7179 49.9123 54.2211 50.0906 53.7031 50.0906C53.1851 50.0906 52.6883 49.9123 52.3221 49.5948C51.9558 49.2774 51.75 48.8468 51.75 48.3979V16.575C51.75 16.1261 51.9558 15.6955 52.3221 15.3781C52.6883 15.0606 53.1851 14.8823 53.7031 14.8823C54.2211 14.8823 54.7179 15.0606 55.0842 15.3781C55.4505 15.6955 55.6562 16.1261 55.6562 16.575V48.3979ZM62.6875 42.9812C62.6896 43.2035 62.6411 43.424 62.5448 43.6301C62.4486 43.8361 62.3064 44.0237 62.1265 44.1822C61.9466 44.3406 61.7324 44.4668 61.4963 44.5535C61.2601 44.6402 61.0065 44.6857 60.75 44.6875H58.7812V20.3125H60.75C61.2631 20.3146 61.7545 20.4922 62.1173 20.8067C62.4801 21.1211 62.685 21.547 62.6875 21.9917V42.9812Z" fill="black"/>
</svg>
