<svg width="25" height="25" viewBox="0 0 25 25" fill="none" xmlns="http://www.w3.org/2000/svg">
<path d="M7.34756 15.625C5.94168 16.4621 2.25557 18.1713 4.50066 20.3103C5.59737 21.3551 6.81882 22.1024 8.35448 22.1024H17.1173C18.6529 22.1024 19.8744 21.3551 20.9711 20.3103C23.2162 18.1713 19.5301 16.4621 18.1242 15.625C14.8275 13.6619 10.6443 13.6619 7.34756 15.625Z" stroke="#182B49" stroke-width="1.36231" stroke-linecap="round" stroke-linejoin="round"/>
<path d="M17.2076 6.69979C17.2076 9.16944 15.2055 11.1715 12.7359 11.1715C10.2662 11.1715 8.26416 9.16944 8.26416 6.69979C8.26416 4.23014 10.2662 2.22809 12.7359 2.22809C15.2055 2.22809 17.2076 4.23014 17.2076 6.69979Z" stroke="#182B49" stroke-width="1.36231"/>
</svg>
