<svg width="25" height="24" viewBox="0 0 25 24" fill="none" xmlns="http://www.w3.org/2000/svg">
<path d="M4 9.36842C4 5.89491 4 4.15816 5.02513 3.07908C6.05025 2 7.70017 2 11 2H14C17.2998 2 18.9497 2 19.9749 3.07908C21 4.15816 21 5.89491 21 9.36842V14.6316C21 18.1051 21 19.8418 19.9749 20.9209C18.9497 22 17.2998 22 14 22H11C7.70017 22 6.05025 22 5.02513 20.9209C4 19.8418 4 18.1051 4 14.6316V9.36842Z" stroke="#C8C8C8" stroke-width="1.5" stroke-linecap="round" stroke-linejoin="round"/>
<path d="M13.5 11H17" stroke="#C8C8C8" stroke-width="1.5" stroke-linecap="round"/>
<path d="M7 12C7 12 7.5 12 8 13C8 13 9.58824 10.5 11 10" stroke="#C8C8C8" stroke-width="1.5" stroke-linecap="round" stroke-linejoin="round"/>
<path d="M14 17H17.5" stroke="#C8C8C8" stroke-width="1.5" stroke-linecap="round"/>
<path d="M8.5 2L8.5822 2.4932C8.78174 3.69044 8.88151 4.28906 9.30113 4.64453C9.72075 5 10.3276 5 11.5414 5H13.4586C14.6724 5 15.2793 5 15.6989 4.64453C16.1185 4.28906 16.2183 3.69044 16.4178 2.4932L16.5 2" stroke="#C8C8C8" stroke-width="1.5" stroke-linecap="round" stroke-linejoin="round"/>
<path d="M8.5 17H9.5" stroke="#C8C8C8" stroke-width="2" stroke-linecap="round" stroke-linejoin="round"/>
</svg>
