<svg width="29" height="29" viewBox="0 0 29 29" fill="none" xmlns="http://www.w3.org/2000/svg">
<path d="M14.5 0C6.49056 0 0 6.49056 0 14.5C0 22.5094 6.49056 29 14.5 29C22.5094 29 29 22.5094 29 14.5C29 6.49056 22.5094 0 14.5 0ZM22.1923 22.1923C20.1351 24.2422 17.4054 25.375 14.5 25.375C11.5946 25.375 8.86494 24.2422 6.80775 22.1923C4.75781 20.1351 3.625 17.4054 3.625 14.5C3.625 11.5946 4.75781 8.86494 6.80775 6.80775C8.86494 4.75781 11.5946 3.625 14.5 3.625C17.4054 3.625 20.1351 4.75781 22.1923 6.80775C24.2422 8.86494 25.375 11.5946 25.375 14.5C25.375 17.4054 24.2422 20.1351 22.1923 22.1923ZM19.546 8.91025L12.7165 16.4992L9.53738 13.3618L6.989 15.9391L12.8687 21.75L22.2376 11.3336L19.546 8.91025Z" fill="#18F262"/>
</svg>
