<svg width="25" height="24" viewBox="0 0 25 24" fill="none" xmlns="http://www.w3.org/2000/svg">
<path fill-rule="evenodd" clip-rule="evenodd" d="M5.68936 3.44053C6.7221 2.96968 7.88648 2.87283 8.98282 3.16659C9.51628 3.30953 9.83287 3.85787 9.68993 4.39133C9.54698 4.9248 8.99865 5.24138 8.46518 5.09844C7.81735 4.92485 7.1293 4.98208 6.51905 5.26031C5.90879 5.53854 5.41436 6.02043 5.12055 6.62334C4.82674 7.22624 4.75186 7.91259 4.90874 8.56467C5.06563 9.21675 5.44452 9.79392 5.98042 10.1972C6.27115 10.416 6.42011 10.7754 6.36935 11.1357C6.3186 11.496 6.07614 11.8003 5.73628 11.9303C5.05694 12.19 4.43286 12.5913 3.90869 13.1154C3.73209 13.292 3.56949 13.4799 3.42157 13.6774C3.11334 14.0889 3.13344 14.4336 3.29565 14.7423C3.48719 15.1068 3.92732 15.4847 4.54987 15.6806C5.0767 15.8463 5.36944 16.4077 5.20371 16.9345C5.03799 17.4614 4.47656 17.7541 3.94972 17.5884C2.92792 17.267 2.00917 16.5936 1.52521 15.6727C1.01193 14.6959 1.0399 13.521 1.82082 12.4784C2.02546 12.2052 2.25034 11.9453 2.49447 11.7012C2.87088 11.3248 3.28457 10.9942 3.72685 10.7131C3.37086 10.2101 3.11052 9.64053 2.96424 9.03252C2.69873 7.929 2.82545 6.76749 3.32267 5.74719C3.81989 4.72688 4.65663 3.91138 5.68936 3.44053ZM18.4807 5.26031C17.8704 4.98208 17.1824 4.92485 16.5345 5.09844C16.0011 5.24138 15.4527 4.9248 15.3098 4.39133C15.1668 3.85787 15.4834 3.30953 16.0169 3.16659C17.1132 2.87283 18.2776 2.96968 19.3103 3.44053C20.3431 3.91138 21.1798 4.72688 21.677 5.74719C22.1742 6.76749 22.301 7.929 22.0355 9.03252C21.8892 9.64053 21.6288 10.2101 21.2728 10.7131C21.7151 10.9942 22.1288 11.3248 22.5052 11.7012C22.7494 11.9453 22.9742 12.2052 23.1789 12.4784C23.9598 13.521 23.9878 14.6959 23.4745 15.6727C22.9905 16.5936 22.0718 17.267 21.05 17.5884C20.5231 17.7541 19.9617 17.4614 19.796 16.9345C19.6303 16.4077 19.923 15.8463 20.4498 15.6806C21.0724 15.4847 21.5125 15.1068 21.7041 14.7423C21.8663 14.4336 21.8864 14.0889 21.5781 13.6774C21.4302 13.4799 21.2676 13.292 21.091 13.1154C20.5668 12.5913 19.9428 12.19 19.2634 11.9303C18.9236 11.8003 18.6811 11.496 18.6304 11.1357C18.5796 10.7754 18.7285 10.416 19.0193 10.1972C19.5552 9.79392 19.9341 9.21675 20.091 8.56467C20.2478 7.91259 20.173 7.22624 19.8792 6.62334C19.5853 6.02043 19.0909 5.53854 18.4807 5.26031ZM12.5 7C10.9045 7 9.61109 8.2934 9.61109 9.88889C9.61109 11.4844 10.9045 12.7778 12.5 12.7778C14.0955 12.7778 15.3889 11.4844 15.3889 9.88889C15.3889 8.2934 14.0955 7 12.5 7ZM15.7434 13.5471C16.7528 12.6515 17.3889 11.3444 17.3889 9.88889C17.3889 7.18883 15.2 5 12.5 5C9.79992 5 7.61109 7.18883 7.61109 9.88889C7.61109 11.3444 8.2472 12.6515 9.25659 13.5471C8.57381 13.8902 7.9436 14.3427 7.39312 14.8932C7.14899 15.1373 6.9241 15.3972 6.71947 15.6704C6.26084 16.2826 6.04487 16.9651 6.0829 17.6538C6.12035 18.3319 6.39927 18.939 6.79803 19.4291C7.58272 20.3936 8.89844 21.0001 10.2778 21.0001H14.7222C16.1016 21.0001 17.4173 20.3936 18.202 19.4291C18.6007 18.939 18.8797 18.3319 18.9171 17.6538C18.9551 16.9651 18.7392 16.2826 18.2805 15.6704C18.0759 15.3972 17.851 15.1373 17.6069 14.8932C17.0564 14.3427 16.4262 13.8902 15.7434 13.5471ZM12.5 14.7778C11.115 14.7778 9.78669 15.328 8.80733 16.3074C8.63074 16.484 8.46814 16.6719 8.32021 16.8694C8.11665 17.1411 8.07012 17.367 8.07986 17.5435C8.09019 17.7306 8.16931 17.9455 8.34944 18.1669C8.72253 18.6255 9.44797 19.0001 10.2778 19.0001H14.7222C15.552 19.0001 16.2775 18.6255 16.6506 18.1669C16.8307 17.9455 16.9098 17.7306 16.9201 17.5435C16.9299 17.367 16.8834 17.1411 16.6798 16.8694C16.5319 16.6719 16.3693 16.484 16.1927 16.3074C15.2133 15.328 13.885 14.7778 12.5 14.7778Z" fill="#C8C8C8"/>
</svg>
