<svg width="21" height="19" viewBox="0 0 21 19" fill="none" xmlns="http://www.w3.org/2000/svg">
<path d="M1.02992 11.2602C0.817271 12.3386 1.768 13.087 2.93205 13.46C7.39481 14.8901 13.6052 14.8901 18.0679 13.46C19.232 13.087 20.1827 12.3386 19.9701 11.2602C19.8394 10.5975 19.1932 10.0457 18.7144 9.50684C18.0873 8.79235 18.025 8.01307 18.0249 7.18398C18.0249 3.97988 14.6559 1.38245 10.5 1.38245C6.34413 1.38245 2.97513 3.97988 2.97513 7.18398C2.97503 8.01307 2.91272 8.79235 2.28561 9.50684C1.80684 10.0457 1.16061 10.5975 1.02992 11.2602Z" stroke="#141B34" stroke-width="1.5" stroke-linecap="round" stroke-linejoin="round"/>
<path d="M7.5 16.525C8.29613 17.0207 9.3475 17.322 10.5 17.322C11.6525 17.322 12.7039 17.0207 13.5 16.525" stroke="#141B34" stroke-width="1.5" stroke-linecap="round" stroke-linejoin="round"/>
</svg>
