<svg width="219" height="145" viewBox="0 0 219 145" fill="none" xmlns="http://www.w3.org/2000/svg">
<path d="M117.875 49.2031C117.67 54.373 113.361 58.7629 107.589 58.6216C106.247 58.5887 104.587 58.1208 101.268 57.1845C93.2793 54.9311 86.3447 51.1442 84.6809 42.6608C84.375 41.1017 84.375 39.3469 84.375 35.8375V31.1625C84.375 27.6532 84.375 25.8984 84.6809 24.339C86.3447 15.8557 93.2793 12.0688 101.268 9.81558C104.587 8.87928 106.247 8.41114 107.589 8.37831C113.361 8.23711 117.67 12.6269 117.875 17.7969" stroke="#182B49" stroke-width="3" stroke-linecap="round"/>
<path d="M134.625 33.5H103.917M134.625 33.5C134.625 31.5453 129.058 27.893 127.646 26.5208M134.625 33.5C134.625 35.4547 129.058 39.107 127.646 40.4791" stroke="#182B49" stroke-width="3" stroke-linecap="round" stroke-linejoin="round"/>
<path d="M79.6426 94.27C78.7126 94.27 77.8726 94.111 77.1226 93.793C76.3786 93.469 75.7636 93.01 75.2776 92.416C74.7976 91.816 74.4856 91.105 74.3416 90.283L76.3036 89.986C76.5016 90.778 76.9156 91.396 77.5456 91.84C78.1756 92.278 78.9106 92.497 79.7506 92.497C80.2726 92.497 80.7526 92.416 81.1906 92.254C81.6286 92.086 81.9796 91.849 82.2436 91.543C82.5136 91.231 82.6486 90.859 82.6486 90.427C82.6486 90.193 82.6066 89.986 82.5226 89.806C82.4446 89.626 82.3336 89.47 82.1896 89.338C82.0516 89.2 81.8806 89.083 81.6766 88.987C81.4786 88.885 81.2596 88.798 81.0196 88.726L77.6986 87.745C77.3746 87.649 77.0446 87.526 76.7086 87.376C76.3726 87.22 76.0636 87.019 75.7816 86.773C75.5056 86.521 75.2806 86.212 75.1066 85.846C74.9326 85.474 74.8456 85.024 74.8456 84.496C74.8456 83.698 75.0496 83.023 75.4576 82.471C75.8716 81.913 76.4296 81.493 77.1316 81.211C77.8336 80.923 78.6196 80.779 79.4896 80.779C80.3656 80.791 81.1486 80.947 81.8386 81.247C82.5346 81.547 83.1106 81.979 83.5666 82.543C84.0286 83.101 84.3466 83.779 84.5206 84.577L82.5046 84.919C82.4146 84.433 82.2226 84.016 81.9286 83.668C81.6346 83.314 81.2746 83.044 80.8486 82.858C80.4226 82.666 79.9606 82.567 79.4626 82.561C78.9826 82.549 78.5416 82.621 78.1396 82.777C77.7436 82.933 77.4256 83.152 77.1856 83.434C76.9516 83.716 76.8346 84.04 76.8346 84.406C76.8346 84.766 76.9396 85.057 77.1496 85.279C77.3596 85.501 77.6176 85.678 77.9236 85.81C78.2356 85.936 78.5446 86.041 78.8506 86.125L81.2446 86.8C81.5446 86.884 81.8836 86.998 82.2616 87.142C82.6456 87.28 83.0146 87.475 83.3686 87.727C83.7286 87.979 84.0256 88.315 84.2596 88.735C84.4936 89.149 84.6106 89.671 84.6106 90.301C84.6106 90.955 84.4786 91.531 84.2146 92.029C83.9506 92.521 83.5876 92.935 83.1256 93.271C82.6696 93.601 82.1416 93.85 81.5416 94.018C80.9416 94.186 80.3086 94.27 79.6426 94.27ZM86.7086 82.687V80.86H88.5896V82.687H86.7086ZM86.7086 94V84.28H88.5896V94H86.7086ZM95.2972 98.59C94.7752 98.59 94.2682 98.509 93.7762 98.347C93.2902 98.185 92.8462 97.945 92.4442 97.627C92.0422 97.315 91.7092 96.928 91.4452 96.466L93.1822 95.584C93.3922 95.998 93.6922 96.301 94.0822 96.493C94.4722 96.685 94.8832 96.781 95.3152 96.781C95.8492 96.781 96.3052 96.685 96.6832 96.493C97.0612 96.307 97.3462 96.025 97.5382 95.647C97.7362 95.269 97.8322 94.801 97.8262 94.243V91.525H98.0512V84.28H99.7162V94.261C99.7162 94.519 99.7072 94.765 99.6892 94.999C99.6712 95.233 99.6382 95.467 99.5902 95.701C99.4522 96.355 99.1882 96.895 98.7982 97.321C98.4142 97.747 97.9222 98.065 97.3222 98.275C96.7282 98.485 96.0532 98.59 95.2972 98.59ZM95.1532 94.27C94.2472 94.27 93.4642 94.045 92.8042 93.595C92.1502 93.145 91.6432 92.533 91.2832 91.759C90.9292 90.979 90.7522 90.103 90.7522 89.131C90.7522 88.153 90.9322 87.28 91.2922 86.512C91.6522 85.738 92.1622 85.129 92.8222 84.685C93.4882 84.235 94.2772 84.01 95.1892 84.01C96.1072 84.01 96.8782 84.235 97.5022 84.685C98.1322 85.129 98.6062 85.738 98.9242 86.512C99.2482 87.286 99.4102 88.159 99.4102 89.131C99.4102 90.103 99.2482 90.976 98.9242 91.75C98.6002 92.524 98.1232 93.139 97.4932 93.595C96.8632 94.045 96.0832 94.27 95.1532 94.27ZM95.4142 92.569C96.0322 92.569 96.5362 92.422 96.9262 92.128C97.3162 91.834 97.6012 91.429 97.7812 90.913C97.9612 90.397 98.0512 89.803 98.0512 89.131C98.0512 88.459 97.9582 87.865 97.7722 87.349C97.5922 86.833 97.3102 86.431 96.9262 86.143C96.5482 85.855 96.0652 85.711 95.4772 85.711C94.8532 85.711 94.3402 85.864 93.9382 86.17C93.5362 86.476 93.2362 86.887 93.0382 87.403C92.8462 87.919 92.7502 88.495 92.7502 89.131C92.7502 89.773 92.8462 90.355 93.0382 90.877C93.2362 91.393 93.5302 91.804 93.9202 92.11C94.3162 92.416 94.8142 92.569 95.4142 92.569ZM109.065 94V89.221C109.065 88.843 109.032 88.456 108.966 88.06C108.906 87.658 108.786 87.286 108.606 86.944C108.432 86.602 108.183 86.326 107.859 86.116C107.541 85.906 107.124 85.801 106.608 85.801C106.272 85.801 105.954 85.858 105.654 85.972C105.354 86.08 105.09 86.257 104.862 86.503C104.64 86.749 104.463 87.073 104.331 87.475C104.205 87.877 104.142 88.366 104.142 88.942L102.972 88.501C102.972 87.619 103.137 86.842 103.467 86.17C103.797 85.492 104.271 84.964 104.889 84.586C105.507 84.208 106.254 84.019 107.13 84.019C107.802 84.019 108.366 84.127 108.822 84.343C109.278 84.559 109.647 84.844 109.929 85.198C110.217 85.546 110.436 85.927 110.586 86.341C110.736 86.755 110.838 87.16 110.892 87.556C110.946 87.952 110.973 88.3 110.973 88.6V94H109.065ZM102.234 94V84.28H103.917V87.088H104.142V94H102.234ZM121.142 94.27C120.17 94.27 119.327 94.051 118.613 93.613C117.899 93.175 117.347 92.572 116.957 91.804C116.573 91.03 116.381 90.139 116.381 89.131C116.381 88.117 116.579 87.226 116.975 86.458C117.371 85.684 117.926 85.084 118.64 84.658C119.354 84.226 120.188 84.01 121.142 84.01C122.114 84.01 122.957 84.229 123.671 84.667C124.385 85.105 124.937 85.708 125.327 86.476C125.717 87.244 125.912 88.129 125.912 89.131C125.912 90.145 125.714 91.039 125.318 91.813C124.928 92.581 124.376 93.184 123.662 93.622C122.948 94.054 122.108 94.27 121.142 94.27ZM121.142 92.497C122.072 92.497 122.765 92.185 123.221 91.561C123.683 90.931 123.914 90.121 123.914 89.131C123.914 88.117 123.68 87.307 123.212 86.701C122.75 86.089 122.06 85.783 121.142 85.783C120.512 85.783 119.993 85.927 119.585 86.215C119.177 86.497 118.874 86.89 118.676 87.394C118.478 87.892 118.379 88.471 118.379 89.131C118.379 90.151 118.613 90.967 119.081 91.579C119.549 92.191 120.236 92.497 121.142 92.497ZM131.553 94.261C130.881 94.261 130.317 94.153 129.861 93.937C129.405 93.721 129.033 93.439 128.745 93.091C128.463 92.737 128.247 92.353 128.097 91.939C127.947 91.525 127.845 91.12 127.791 90.724C127.737 90.328 127.71 89.98 127.71 89.68V84.28H129.618V89.059C129.618 89.437 129.648 89.827 129.708 90.229C129.774 90.625 129.894 90.994 130.068 91.336C130.248 91.678 130.497 91.954 130.815 92.164C131.139 92.374 131.559 92.479 132.075 92.479C132.411 92.479 132.729 92.425 133.029 92.317C133.329 92.203 133.59 92.023 133.812 91.777C134.04 91.531 134.217 91.207 134.343 90.805C134.475 90.403 134.541 89.914 134.541 89.338L135.711 89.779C135.711 90.661 135.546 91.441 135.216 92.119C134.886 92.791 134.412 93.316 133.794 93.694C133.176 94.072 132.429 94.261 131.553 94.261ZM134.766 94V91.192H134.541V84.28H136.44V94H134.766ZM144.526 94C143.914 94.12 143.314 94.171 142.726 94.153C142.138 94.135 141.613 94.021 141.151 93.811C140.689 93.601 140.341 93.271 140.107 92.821C139.897 92.419 139.783 92.011 139.765 91.597C139.753 91.177 139.747 90.703 139.747 90.175V81.58H141.637V90.085C141.637 90.475 141.64 90.814 141.646 91.102C141.658 91.39 141.721 91.633 141.835 91.831C142.051 92.203 142.393 92.416 142.861 92.47C143.335 92.518 143.89 92.497 144.526 92.407V94ZM137.884 85.792V84.28H144.526V85.792H137.884Z" fill="#182B49"/>
<path d="M7.05637 122L10.5284 111.92H11.8934L15.3654 122H14.2944L10.9974 112.494H11.4034L8.12737 122H7.05637ZM8.60337 119.557V118.591H13.8114V119.557H8.60337ZM16.6294 122V114.44H17.5534V116.26L17.3714 116.022C17.4554 115.798 17.5651 115.593 17.7004 115.406C17.8357 115.215 17.9827 115.058 18.1414 114.937C18.3374 114.764 18.5661 114.634 18.8274 114.545C19.0887 114.452 19.3524 114.398 19.6184 114.384C19.8844 114.365 20.1271 114.384 20.3464 114.44V115.406C20.0711 115.336 19.7701 115.32 19.4434 115.357C19.1167 115.394 18.8157 115.525 18.5404 115.749C18.2884 115.945 18.0994 116.181 17.9734 116.456C17.8474 116.727 17.7634 117.016 17.7214 117.324C17.6794 117.627 17.6584 117.928 17.6584 118.227V122H16.6294ZM24.7366 122.21C23.9993 122.21 23.36 122.047 22.8186 121.72C22.282 121.393 21.8643 120.934 21.5656 120.341C21.267 119.748 21.1176 119.053 21.1176 118.255C21.1176 117.429 21.2646 116.715 21.5586 116.113C21.8526 115.511 22.2656 115.047 22.7976 114.72C23.3343 114.393 23.9666 114.23 24.6946 114.23C25.4413 114.23 26.0783 114.403 26.6056 114.748C27.133 115.089 27.532 115.579 27.8026 116.218C28.0733 116.857 28.197 117.62 28.1736 118.507H27.1236V118.143C27.105 117.163 26.8926 116.423 26.4866 115.924C26.0853 115.425 25.4973 115.175 24.7226 115.175C23.9106 115.175 23.2876 115.439 22.8536 115.966C22.4243 116.493 22.2096 117.245 22.2096 118.22C22.2096 119.172 22.4243 119.912 22.8536 120.439C23.2876 120.962 23.9013 121.223 24.6946 121.223C25.236 121.223 25.7073 121.099 26.1086 120.852C26.5146 120.6 26.8343 120.238 27.0676 119.767L28.0266 120.138C27.728 120.796 27.287 121.307 26.7036 121.671C26.125 122.03 25.4693 122.21 24.7366 122.21ZM21.8456 118.507V117.646H27.6206V118.507H21.8456ZM33.6078 125.36L35.0708 121.391L35.0918 122.567L31.7808 114.44H32.8728L35.5888 121.237H35.1408L37.6468 114.44H38.6968L34.6368 125.36H33.6078ZM42.7962 122.21C42.0448 122.21 41.4032 122.04 40.8712 121.699C40.3392 121.358 39.9308 120.887 39.6462 120.285C39.3615 119.683 39.2192 118.992 39.2192 118.213C39.2192 117.42 39.3638 116.724 39.6532 116.127C39.9425 115.53 40.3532 115.065 40.8852 114.734C41.4218 114.398 42.0588 114.23 42.7962 114.23C43.5522 114.23 44.1962 114.4 44.7282 114.741C45.2648 115.077 45.6732 115.546 45.9532 116.148C46.2378 116.745 46.3802 117.434 46.3802 118.213C46.3802 119.006 46.2378 119.704 45.9532 120.306C45.6685 120.903 45.2578 121.37 44.7212 121.706C44.1845 122.042 43.5428 122.21 42.7962 122.21ZM42.7962 121.223C43.6362 121.223 44.2615 120.945 44.6722 120.39C45.0828 119.83 45.2882 119.104 45.2882 118.213C45.2882 117.298 45.0805 116.57 44.6652 116.029C44.2545 115.488 43.6315 115.217 42.7962 115.217C42.2315 115.217 41.7648 115.345 41.3962 115.602C41.0322 115.854 40.7592 116.206 40.5772 116.659C40.3998 117.107 40.3112 117.625 40.3112 118.213C40.3112 119.123 40.5212 119.853 40.9412 120.404C41.3612 120.95 41.9795 121.223 42.7962 121.223ZM50.8153 122.189C50.3627 122.189 49.966 122.119 49.6253 121.979C49.2893 121.839 49.0023 121.65 48.7643 121.412C48.531 121.174 48.342 120.903 48.1973 120.6C48.0527 120.292 47.9477 119.968 47.8823 119.627C47.817 119.282 47.7843 118.939 47.7843 118.598V114.44H48.8203V118.297C48.8203 118.712 48.86 119.097 48.9393 119.452C49.0187 119.807 49.1447 120.117 49.3173 120.383C49.4947 120.644 49.721 120.847 49.9963 120.992C50.2763 121.137 50.6147 121.209 51.0113 121.209C51.3753 121.209 51.695 121.146 51.9703 121.02C52.2503 120.894 52.4837 120.714 52.6703 120.481C52.8617 120.243 53.0063 119.956 53.1043 119.62C53.2023 119.279 53.2513 118.897 53.2513 118.472L53.9793 118.633C53.9793 119.408 53.844 120.059 53.5733 120.586C53.3027 121.113 52.9293 121.512 52.4533 121.783C51.9773 122.054 51.4313 122.189 50.8153 122.189ZM53.3563 122V120.138H53.2513V114.44H54.2803V122H53.3563ZM61.8606 122.203C60.9739 122.203 60.2436 122.012 59.6696 121.629C59.1002 121.246 58.7502 120.714 58.6196 120.033L59.6696 119.858C59.7816 120.287 60.0359 120.63 60.4326 120.887C60.8339 121.139 61.3286 121.265 61.9166 121.265C62.4906 121.265 62.9432 121.146 63.2746 120.908C63.6059 120.665 63.7716 120.336 63.7716 119.921C63.7716 119.688 63.7179 119.499 63.6106 119.354C63.5079 119.205 63.2956 119.067 62.9736 118.941C62.6516 118.815 62.1709 118.666 61.5316 118.493C60.8456 118.306 60.3089 118.12 59.9216 117.933C59.5342 117.746 59.2589 117.532 59.0956 117.289C58.9322 117.042 58.8506 116.741 58.8506 116.386C58.8506 115.957 58.9719 115.581 59.2146 115.259C59.4572 114.932 59.7932 114.68 60.2226 114.503C60.6519 114.321 61.1512 114.23 61.7206 114.23C62.2899 114.23 62.7986 114.323 63.2466 114.51C63.6992 114.692 64.0632 114.949 64.3386 115.28C64.6139 115.611 64.7772 115.996 64.8286 116.435L63.7786 116.624C63.7086 116.181 63.4869 115.831 63.1136 115.574C62.7449 115.313 62.2759 115.177 61.7066 115.168C61.1699 115.154 60.7336 115.257 60.3976 115.476C60.0616 115.691 59.8936 115.978 59.8936 116.337C59.8936 116.538 59.9542 116.71 60.0756 116.855C60.1969 116.995 60.4162 117.128 60.7336 117.254C61.0556 117.38 61.5129 117.518 62.1056 117.667C62.8009 117.844 63.3469 118.031 63.7436 118.227C64.1402 118.423 64.4226 118.654 64.5906 118.92C64.7586 119.186 64.8426 119.515 64.8426 119.907C64.8426 120.621 64.5766 121.183 64.0446 121.594C63.5172 122 62.7892 122.203 61.8606 122.203ZM69.286 122.189C68.8334 122.189 68.4367 122.119 68.096 121.979C67.76 121.839 67.473 121.65 67.235 121.412C67.0017 121.174 66.8127 120.903 66.668 120.6C66.5234 120.292 66.4184 119.968 66.353 119.627C66.2877 119.282 66.255 118.939 66.255 118.598V114.44H67.291V118.297C67.291 118.712 67.3307 119.097 67.41 119.452C67.4894 119.807 67.6154 120.117 67.788 120.383C67.9654 120.644 68.1917 120.847 68.467 120.992C68.747 121.137 69.0854 121.209 69.482 121.209C69.846 121.209 70.1657 121.146 70.441 121.02C70.721 120.894 70.9544 120.714 71.141 120.481C71.3324 120.243 71.477 119.956 71.575 119.62C71.673 119.279 71.722 118.897 71.722 118.472L72.45 118.633C72.45 119.408 72.3147 120.059 72.044 120.586C71.7734 121.113 71.4 121.512 70.924 121.783C70.448 122.054 69.902 122.189 69.286 122.189ZM71.827 122V120.138H71.722V114.44H72.751V122H71.827ZM74.7075 122V114.44H75.6315V116.26L75.4495 116.022C75.5335 115.798 75.6432 115.593 75.7785 115.406C75.9139 115.215 76.0609 115.058 76.2195 114.937C76.4155 114.764 76.6442 114.634 76.9055 114.545C77.1669 114.452 77.4305 114.398 77.6965 114.384C77.9625 114.365 78.2052 114.384 78.4245 114.44V115.406C78.1492 115.336 77.8482 115.32 77.5215 115.357C77.1949 115.394 76.8939 115.525 76.6185 115.749C76.3665 115.945 76.1775 116.181 76.0515 116.456C75.9255 116.727 75.8415 117.016 75.7995 117.324C75.7575 117.627 75.7365 117.928 75.7365 118.227V122H74.7075ZM82.8147 122.21C82.0774 122.21 81.4381 122.047 80.8967 121.72C80.3601 121.393 79.9424 120.934 79.6437 120.341C79.3451 119.748 79.1957 119.053 79.1957 118.255C79.1957 117.429 79.3427 116.715 79.6367 116.113C79.9307 115.511 80.3437 115.047 80.8757 114.72C81.4124 114.393 82.0447 114.23 82.7727 114.23C83.5194 114.23 84.1564 114.403 84.6837 114.748C85.2111 115.089 85.6101 115.579 85.8807 116.218C86.1514 116.857 86.2751 117.62 86.2517 118.507H85.2017V118.143C85.1831 117.163 84.9707 116.423 84.5647 115.924C84.1634 115.425 83.5754 115.175 82.8007 115.175C81.9887 115.175 81.3657 115.439 80.9317 115.966C80.5024 116.493 80.2877 117.245 80.2877 118.22C80.2877 119.172 80.5024 119.912 80.9317 120.439C81.3657 120.962 81.9794 121.223 82.7727 121.223C83.3141 121.223 83.7854 121.099 84.1867 120.852C84.5927 120.6 84.9124 120.238 85.1457 119.767L86.1047 120.138C85.8061 120.796 85.3651 121.307 84.7817 121.671C84.2031 122.03 83.5474 122.21 82.8147 122.21ZM79.9237 118.507V117.646H85.6987V118.507H79.9237ZM91.6859 125.36L93.1489 121.391L93.1699 122.567L89.8589 114.44H90.9509L93.6669 121.237H93.2189L95.7249 114.44H96.7749L92.7149 125.36H91.6859ZM100.874 122.21C100.123 122.21 99.4813 122.04 98.9493 121.699C98.4173 121.358 98.009 120.887 97.7243 120.285C97.4396 119.683 97.2973 118.992 97.2973 118.213C97.2973 117.42 97.442 116.724 97.7313 116.127C98.0206 115.53 98.4313 115.065 98.9633 114.734C99.5 114.398 100.137 114.23 100.874 114.23C101.63 114.23 102.274 114.4 102.806 114.741C103.343 115.077 103.751 115.546 104.031 116.148C104.316 116.745 104.458 117.434 104.458 118.213C104.458 119.006 104.316 119.704 104.031 120.306C103.747 120.903 103.336 121.37 102.799 121.706C102.263 122.042 101.621 122.21 100.874 122.21ZM100.874 121.223C101.714 121.223 102.34 120.945 102.75 120.39C103.161 119.83 103.366 119.104 103.366 118.213C103.366 117.298 103.159 116.57 102.743 116.029C102.333 115.488 101.71 115.217 100.874 115.217C100.31 115.217 99.843 115.345 99.4743 115.602C99.1103 115.854 98.8373 116.206 98.6553 116.659C98.478 117.107 98.3893 117.625 98.3893 118.213C98.3893 119.123 98.5993 119.853 99.0193 120.404C99.4393 120.95 100.058 121.223 100.874 121.223ZM108.893 122.189C108.441 122.189 108.044 122.119 107.703 121.979C107.367 121.839 107.08 121.65 106.842 121.412C106.609 121.174 106.42 120.903 106.275 120.6C106.131 120.292 106.026 119.968 105.96 119.627C105.895 119.282 105.862 118.939 105.862 118.598V114.44H106.898V118.297C106.898 118.712 106.938 119.097 107.017 119.452C107.097 119.807 107.223 120.117 107.395 120.383C107.573 120.644 107.799 120.847 108.074 120.992C108.354 121.137 108.693 121.209 109.089 121.209C109.453 121.209 109.773 121.146 110.048 121.02C110.328 120.894 110.562 120.714 110.748 120.481C110.94 120.243 111.084 119.956 111.182 119.62C111.28 119.279 111.329 118.897 111.329 118.472L112.057 118.633C112.057 119.408 111.922 120.059 111.651 120.586C111.381 121.113 111.007 121.512 110.531 121.783C110.055 122.054 109.509 122.189 108.893 122.189ZM111.434 122V120.138H111.329V114.44H112.358V122H111.434ZM118.728 122L116.418 114.433L117.447 114.44L119.239 120.313L121.038 114.44H121.976L123.775 120.313L125.581 114.44H126.603L124.293 122H123.397L121.507 115.98L119.624 122H118.728ZM129.603 122.21C129.034 122.21 128.555 122.107 128.168 121.902C127.785 121.697 127.498 121.424 127.307 121.083C127.116 120.742 127.02 120.371 127.02 119.97C127.02 119.559 127.102 119.209 127.265 118.92C127.433 118.626 127.659 118.386 127.944 118.199C128.233 118.012 128.567 117.87 128.945 117.772C129.328 117.679 129.75 117.597 130.212 117.527C130.679 117.452 131.134 117.389 131.577 117.338C132.025 117.282 132.417 117.228 132.753 117.177L132.389 117.401C132.403 116.654 132.258 116.101 131.955 115.742C131.652 115.383 131.124 115.203 130.373 115.203C129.855 115.203 129.416 115.32 129.057 115.553C128.702 115.786 128.453 116.155 128.308 116.659L127.307 116.365C127.48 115.688 127.827 115.163 128.35 114.79C128.873 114.417 129.552 114.23 130.387 114.23C131.078 114.23 131.663 114.361 132.144 114.622C132.629 114.879 132.972 115.252 133.173 115.742C133.266 115.961 133.327 116.206 133.355 116.477C133.383 116.748 133.397 117.023 133.397 117.303V122H132.48V120.103L132.746 120.215C132.489 120.864 132.09 121.358 131.549 121.699C131.008 122.04 130.359 122.21 129.603 122.21ZM129.722 121.321C130.203 121.321 130.623 121.235 130.982 121.062C131.341 120.889 131.631 120.654 131.85 120.355C132.069 120.052 132.212 119.711 132.277 119.333C132.333 119.09 132.363 118.824 132.368 118.535C132.373 118.241 132.375 118.022 132.375 117.877L132.767 118.08C132.417 118.127 132.037 118.173 131.626 118.22C131.22 118.267 130.819 118.32 130.422 118.381C130.03 118.442 129.675 118.514 129.358 118.598C129.143 118.659 128.936 118.745 128.735 118.857C128.534 118.964 128.369 119.109 128.238 119.291C128.112 119.473 128.049 119.699 128.049 119.97C128.049 120.189 128.103 120.402 128.21 120.607C128.322 120.812 128.499 120.983 128.742 121.118C128.989 121.253 129.316 121.321 129.722 121.321ZM140.679 122V118.143C140.679 117.723 140.64 117.338 140.56 116.988C140.481 116.633 140.353 116.325 140.175 116.064C140.003 115.798 139.776 115.593 139.496 115.448C139.221 115.303 138.885 115.231 138.488 115.231C138.124 115.231 137.802 115.294 137.522 115.42C137.247 115.546 137.014 115.728 136.822 115.966C136.636 116.199 136.493 116.484 136.395 116.82C136.297 117.156 136.248 117.539 136.248 117.968L135.52 117.807C135.52 117.032 135.656 116.381 135.926 115.854C136.197 115.327 136.57 114.928 137.046 114.657C137.522 114.386 138.068 114.251 138.684 114.251C139.137 114.251 139.531 114.321 139.867 114.461C140.208 114.601 140.495 114.79 140.728 115.028C140.966 115.266 141.158 115.539 141.302 115.847C141.447 116.15 141.552 116.475 141.617 116.82C141.683 117.161 141.715 117.501 141.715 117.842V122H140.679ZM135.212 122V114.44H136.143V116.302H136.248V122H135.212ZM147.648 122C147.223 122.089 146.803 122.124 146.388 122.105C145.977 122.086 145.608 121.998 145.282 121.839C144.96 121.68 144.715 121.433 144.547 121.097C144.411 120.817 144.337 120.535 144.323 120.25C144.313 119.961 144.309 119.632 144.309 119.263V112.34H145.331V119.221C145.331 119.538 145.333 119.804 145.338 120.019C145.347 120.229 145.396 120.416 145.485 120.579C145.653 120.892 145.919 121.078 146.283 121.139C146.651 121.2 147.106 121.186 147.648 121.097V122ZM142.692 115.322V114.44H147.648V115.322H142.692ZM156.056 122C155.631 122.089 155.211 122.124 154.796 122.105C154.385 122.086 154.017 121.998 153.69 121.839C153.368 121.68 153.123 121.433 152.955 121.097C152.82 120.817 152.745 120.535 152.731 120.25C152.722 119.961 152.717 119.632 152.717 119.263V112.34H153.739V119.221C153.739 119.538 153.741 119.804 153.746 120.019C153.755 120.229 153.804 120.416 153.893 120.579C154.061 120.892 154.327 121.078 154.691 121.139C155.06 121.2 155.515 121.186 156.056 121.097V122ZM151.1 115.322V114.44H156.056V115.322H151.1ZM160.429 122.21C159.678 122.21 159.036 122.04 158.504 121.699C157.972 121.358 157.564 120.887 157.279 120.285C156.994 119.683 156.852 118.992 156.852 118.213C156.852 117.42 156.997 116.724 157.286 116.127C157.575 115.53 157.986 115.065 158.518 114.734C159.055 114.398 159.692 114.23 160.429 114.23C161.185 114.23 161.829 114.4 162.361 114.741C162.898 115.077 163.306 115.546 163.586 116.148C163.871 116.745 164.013 117.434 164.013 118.213C164.013 119.006 163.871 119.704 163.586 120.306C163.301 120.903 162.891 121.37 162.354 121.706C161.817 122.042 161.176 122.21 160.429 122.21ZM160.429 121.223C161.269 121.223 161.894 120.945 162.305 120.39C162.716 119.83 162.921 119.104 162.921 118.213C162.921 117.298 162.713 116.57 162.298 116.029C161.887 115.488 161.264 115.217 160.429 115.217C159.864 115.217 159.398 115.345 159.029 115.602C158.665 115.854 158.392 116.206 158.21 116.659C158.033 117.107 157.944 117.625 157.944 118.213C157.944 119.123 158.154 119.853 158.574 120.404C158.994 120.95 159.612 121.223 160.429 121.223ZM168.5 122V111.71H169.529V122H168.5ZM174.784 122.21C174.033 122.21 173.391 122.04 172.859 121.699C172.327 121.358 171.919 120.887 171.634 120.285C171.35 119.683 171.207 118.992 171.207 118.213C171.207 117.42 171.352 116.724 171.641 116.127C171.931 115.53 172.341 115.065 172.873 114.734C173.41 114.398 174.047 114.23 174.784 114.23C175.54 114.23 176.184 114.4 176.716 114.741C177.253 115.077 177.661 115.546 177.941 116.148C178.226 116.745 178.368 117.434 178.368 118.213C178.368 119.006 178.226 119.704 177.941 120.306C177.657 120.903 177.246 121.37 176.709 121.706C176.173 122.042 175.531 122.21 174.784 122.21ZM174.784 121.223C175.624 121.223 176.25 120.945 176.66 120.39C177.071 119.83 177.276 119.104 177.276 118.213C177.276 117.298 177.069 116.57 176.653 116.029C176.243 115.488 175.62 115.217 174.784 115.217C174.22 115.217 173.753 115.345 173.384 115.602C173.02 115.854 172.747 116.206 172.565 116.659C172.388 117.107 172.299 117.625 172.299 118.213C172.299 119.123 172.509 119.853 172.929 120.404C173.349 120.95 173.968 121.223 174.784 121.223ZM182.916 125.57C182.528 125.57 182.146 125.512 181.768 125.395C181.394 125.283 181.049 125.103 180.732 124.856C180.414 124.613 180.148 124.296 179.934 123.904L180.865 123.386C181.075 123.806 181.369 124.107 181.747 124.289C182.129 124.476 182.519 124.569 182.916 124.569C183.462 124.569 183.903 124.466 184.239 124.261C184.579 124.06 184.827 123.762 184.981 123.365C185.135 122.968 185.209 122.474 185.205 121.881V119.865H185.324V114.44H186.241V121.895C186.241 122.11 186.234 122.315 186.22 122.511C186.21 122.712 186.189 122.908 186.157 123.099C186.068 123.664 185.884 124.128 185.604 124.492C185.328 124.856 184.964 125.127 184.512 125.304C184.064 125.481 183.532 125.57 182.916 125.57ZM182.846 122.21C182.141 122.21 181.539 122.035 181.04 121.685C180.54 121.33 180.158 120.852 179.892 120.25C179.626 119.648 179.493 118.969 179.493 118.213C179.493 117.462 179.623 116.785 179.885 116.183C180.151 115.581 180.531 115.105 181.026 114.755C181.52 114.405 182.113 114.23 182.804 114.23C183.513 114.23 184.11 114.403 184.596 114.748C185.081 115.093 185.447 115.567 185.695 116.169C185.947 116.766 186.073 117.448 186.073 118.213C186.073 118.964 185.949 119.643 185.702 120.25C185.454 120.852 185.09 121.33 184.61 121.685C184.129 122.035 183.541 122.21 182.846 122.21ZM182.951 121.251C183.487 121.251 183.931 121.12 184.281 120.859C184.631 120.598 184.892 120.238 185.065 119.781C185.237 119.319 185.324 118.796 185.324 118.213C185.324 117.62 185.237 117.098 185.065 116.645C184.892 116.188 184.631 115.831 184.281 115.574C183.935 115.317 183.499 115.189 182.972 115.189C182.43 115.189 181.982 115.322 181.628 115.588C181.273 115.854 181.009 116.216 180.837 116.673C180.669 117.13 180.585 117.644 180.585 118.213C180.585 118.787 180.671 119.305 180.844 119.767C181.021 120.224 181.285 120.586 181.635 120.852C181.985 121.118 182.423 121.251 182.951 121.251ZM194.158 122.21C193.406 122.21 192.765 122.04 192.233 121.699C191.701 121.358 191.292 120.887 191.008 120.285C190.723 119.683 190.581 118.992 190.581 118.213C190.581 117.42 190.725 116.724 191.015 116.127C191.304 115.53 191.715 115.065 192.247 114.734C192.783 114.398 193.42 114.23 194.158 114.23C194.914 114.23 195.558 114.4 196.09 114.741C196.626 115.077 197.035 115.546 197.315 116.148C197.599 116.745 197.742 117.434 197.742 118.213C197.742 119.006 197.599 119.704 197.315 120.306C197.03 120.903 196.619 121.37 196.083 121.706C195.546 122.042 194.904 122.21 194.158 122.21ZM194.158 121.223C194.998 121.223 195.623 120.945 196.034 120.39C196.444 119.83 196.65 119.104 196.65 118.213C196.65 117.298 196.442 116.57 196.027 116.029C195.616 115.488 194.993 115.217 194.158 115.217C193.593 115.217 193.126 115.345 192.758 115.602C192.394 115.854 192.121 116.206 191.939 116.659C191.761 117.107 191.673 117.625 191.673 118.213C191.673 119.123 191.883 119.853 192.303 120.404C192.723 120.95 193.341 121.223 194.158 121.223ZM202.177 122.189C201.724 122.189 201.327 122.119 200.987 121.979C200.651 121.839 200.364 121.65 200.126 121.412C199.892 121.174 199.703 120.903 199.559 120.6C199.414 120.292 199.309 119.968 199.244 119.627C199.178 119.282 199.146 118.939 199.146 118.598V114.44H200.182V118.297C200.182 118.712 200.221 119.097 200.301 119.452C200.38 119.807 200.506 120.117 200.679 120.383C200.856 120.644 201.082 120.847 201.358 120.992C201.638 121.137 201.976 121.209 202.373 121.209C202.737 121.209 203.056 121.146 203.332 121.02C203.612 120.894 203.845 120.714 204.032 120.481C204.223 120.243 204.368 119.956 204.466 119.62C204.564 119.279 204.613 118.897 204.613 118.472L205.341 118.633C205.341 119.408 205.205 120.059 204.935 120.586C204.664 121.113 204.291 121.512 203.815 121.783C203.339 122.054 202.793 122.189 202.177 122.189ZM204.718 122V120.138H204.613V114.44H205.642V122H204.718ZM211.714 122C211.289 122.089 210.869 122.124 210.454 122.105C210.043 122.086 209.675 121.998 209.348 121.839C209.026 121.68 208.781 121.433 208.613 121.097C208.478 120.817 208.403 120.535 208.389 120.25C208.38 119.961 208.375 119.632 208.375 119.263V112.34H209.397V119.221C209.397 119.538 209.399 119.804 209.404 120.019C209.413 120.229 209.462 120.416 209.551 120.579C209.719 120.892 209.985 121.078 210.349 121.139C210.718 121.2 211.173 121.186 211.714 121.097V122ZM206.758 115.322V114.44H211.714V115.322H206.758ZM78.6985 141.21C77.9472 141.21 77.3055 141.04 76.7735 140.699C76.2415 140.358 75.8332 139.887 75.5485 139.285C75.2639 138.683 75.1215 137.992 75.1215 137.213C75.1215 136.42 75.2662 135.724 75.5555 135.127C75.8449 134.53 76.2555 134.065 76.7875 133.734C77.3242 133.398 77.9612 133.23 78.6985 133.23C79.4545 133.23 80.0985 133.4 80.6305 133.741C81.1672 134.077 81.5755 134.546 81.8555 135.148C82.1402 135.745 82.2825 136.434 82.2825 137.213C82.2825 138.006 82.1402 138.704 81.8555 139.306C81.5709 139.903 81.1602 140.37 80.6235 140.706C80.0869 141.042 79.4452 141.21 78.6985 141.21ZM78.6985 140.223C79.5385 140.223 80.1639 139.945 80.5745 139.39C80.9852 138.83 81.1905 138.104 81.1905 137.213C81.1905 136.298 80.9829 135.57 80.5675 135.029C80.1569 134.488 79.5339 134.217 78.6985 134.217C78.1339 134.217 77.6672 134.345 77.2985 134.602C76.9345 134.854 76.6615 135.206 76.4795 135.659C76.3022 136.107 76.2135 136.625 76.2135 137.213C76.2135 138.123 76.4235 138.853 76.8435 139.404C77.2635 139.95 77.8819 140.223 78.6985 140.223ZM84.5757 141V132.88C84.5757 132.684 84.585 132.49 84.6037 132.299C84.627 132.108 84.6713 131.926 84.7367 131.753C84.802 131.576 84.9047 131.412 85.0447 131.263C85.1987 131.095 85.3667 130.974 85.5487 130.899C85.7307 130.82 85.9197 130.768 86.1157 130.745C86.3163 130.722 86.5123 130.71 86.7037 130.71H87.6697V131.578H86.7737C86.3817 131.578 86.0877 131.674 85.8917 131.865C85.7003 132.056 85.6047 132.357 85.6047 132.768V141H84.5757ZM83.2667 134.322V133.44H87.6697V134.322H83.2667ZM94.2733 141V131.907H90.7523V130.92H98.8233V131.907H95.3023V141H94.2733ZM99.2486 141V133.44H100.173V135.26L99.9906 135.022C100.075 134.798 100.184 134.593 100.32 134.406C100.455 134.215 100.602 134.058 100.761 133.937C100.957 133.764 101.185 133.634 101.447 133.545C101.708 133.452 101.972 133.398 102.238 133.384C102.504 133.365 102.746 133.384 102.966 133.44V134.406C102.69 134.336 102.389 134.32 102.063 134.357C101.736 134.394 101.435 134.525 101.16 134.749C100.908 134.945 100.719 135.181 100.593 135.456C100.467 135.727 100.383 136.016 100.341 136.324C100.299 136.627 100.278 136.928 100.278 137.227V141H99.2486ZM104.433 132.005V130.85H105.462V132.005H104.433ZM104.433 141V133.44H105.462V141H104.433ZM111.677 141C111.252 141.089 110.832 141.124 110.417 141.105C110.006 141.086 109.638 140.998 109.311 140.839C108.989 140.68 108.744 140.433 108.576 140.097C108.441 139.817 108.366 139.535 108.352 139.25C108.343 138.961 108.338 138.632 108.338 138.263V131.34H109.36V138.221C109.36 138.538 109.362 138.804 109.367 139.019C109.376 139.229 109.425 139.416 109.514 139.579C109.682 139.892 109.948 140.078 110.312 140.139C110.681 140.2 111.136 140.186 111.677 140.097V141ZM106.721 134.322V133.44H111.677V134.322H106.721ZM116.05 141.21C115.299 141.21 114.657 141.04 114.125 140.699C113.593 140.358 113.185 139.887 112.9 139.285C112.615 138.683 112.473 137.992 112.473 137.213C112.473 136.42 112.618 135.724 112.907 135.127C113.196 134.53 113.607 134.065 114.139 133.734C114.676 133.398 115.313 133.23 116.05 133.23C116.806 133.23 117.45 133.4 117.982 133.741C118.519 134.077 118.927 134.546 119.207 135.148C119.492 135.745 119.634 136.434 119.634 137.213C119.634 138.006 119.492 138.704 119.207 139.306C118.922 139.903 118.512 140.37 117.975 140.706C117.438 141.042 116.797 141.21 116.05 141.21ZM116.05 140.223C116.89 140.223 117.515 139.945 117.926 139.39C118.337 138.83 118.542 138.104 118.542 137.213C118.542 136.298 118.334 135.57 117.919 135.029C117.508 134.488 116.885 134.217 116.05 134.217C115.485 134.217 115.019 134.345 114.65 134.602C114.286 134.854 114.013 135.206 113.831 135.659C113.654 136.107 113.565 136.625 113.565 137.213C113.565 138.123 113.775 138.853 114.195 139.404C114.615 139.95 115.233 140.223 116.05 140.223ZM126.638 141V137.143C126.638 136.723 126.599 136.338 126.519 135.988C126.44 135.633 126.312 135.325 126.134 135.064C125.962 134.798 125.735 134.593 125.455 134.448C125.18 134.303 124.844 134.231 124.447 134.231C124.083 134.231 123.761 134.294 123.481 134.42C123.206 134.546 122.973 134.728 122.781 134.966C122.595 135.199 122.452 135.484 122.354 135.82C122.256 136.156 122.207 136.539 122.207 136.968L121.479 136.807C121.479 136.032 121.615 135.381 121.885 134.854C122.156 134.327 122.529 133.928 123.005 133.657C123.481 133.386 124.027 133.251 124.643 133.251C125.096 133.251 125.49 133.321 125.826 133.461C126.167 133.601 126.454 133.79 126.687 134.028C126.925 134.266 127.117 134.539 127.261 134.847C127.406 135.15 127.511 135.475 127.576 135.82C127.642 136.161 127.674 136.501 127.674 136.842V141H126.638ZM121.171 141V133.44H122.102V135.302H122.207V141H121.171ZM129.491 141V130.92H135.28V131.949H130.52V135.449H134.44V136.471H130.52V141H129.491ZM136.685 132.005V130.85H137.714V132.005H136.685ZM136.685 141V133.44H137.714V141H136.685ZM143.929 141C143.504 141.089 143.084 141.124 142.669 141.105C142.258 141.086 141.89 140.998 141.563 140.839C141.241 140.68 140.996 140.433 140.828 140.097C140.693 139.817 140.618 139.535 140.604 139.25C140.595 138.961 140.59 138.632 140.59 138.263V131.34H141.612V138.221C141.612 138.538 141.614 138.804 141.619 139.019C141.628 139.229 141.677 139.416 141.766 139.579C141.934 139.892 142.2 140.078 142.564 140.139C142.933 140.2 143.388 140.186 143.929 140.097V141ZM138.973 134.322V133.44H143.929V134.322H138.973Z" fill="#182B49"/>
</svg>
