<svg width="25" height="24" viewBox="0 0 25 24" fill="none" xmlns="http://www.w3.org/2000/svg">
<path d="M15.717 17.6444C15.6439 19.4847 14.1103 21.0473 12.0558 20.997C11.5778 20.9853 10.9871 20.8187 9.80555 20.4854C6.96203 19.6833 4.49359 18.3353 3.90135 15.3157C3.79248 14.7607 3.79248 14.136 3.79248 12.8868V11.2228C3.79248 9.97357 3.79248 9.34896 3.90135 8.79389C4.49359 5.77419 6.96203 4.42623 9.80555 3.62417C10.9871 3.29089 11.5778 3.12426 12.0558 3.11257C14.1103 3.06231 15.6439 4.62488 15.717 6.46517" stroke="#686868" stroke-width="1.36231" stroke-linecap="round"/>
<path d="M21.6792 12.0548H10.7484M21.6792 12.0548C21.6792 11.359 19.6975 10.0589 19.195 9.5705M21.6792 12.0548C21.6792 12.7506 19.6975 14.0506 19.195 14.5391" stroke="#686868" stroke-width="1.36231" stroke-linecap="round" stroke-linejoin="round"/>
</svg>
